<svg xmlns="http://www.w3.org/2000/svg" viewBox="0 0 1171.88 123.45"><defs><style>.cls-1{fill:#ec4d0f;}</style></defs><g id="Слой_2" data-name="Слой 2"><g id="Слой_1-2" data-name="Слой 1"><path d="M100.33,68.83C99.48,52.74,98.45,33.39,98.62,19h-.51c-3.94,13.52-8.73,27.9-14.56,43.83l-20.37,56H51.88l-18.66-55C27.74,47.6,23.11,32.7,19.86,19h-.34c-.34,14.38-1.2,33.73-2.23,51l-3.08,49.48H0L8.05,4.11h19L46.74,59.93c4.8,14.21,8.74,26.88,11.65,38.86h.51c2.91-11.64,7-24.31,12.16-38.86L91.6,4.11h19l7.19,115.4H103.25Z"/><path d="M159.06,13.36c.17,5.13-3.59,9.24-9.59,9.24a9,9,0,0,1-9.07-9.24,9.18,9.18,0,0,1,9.42-9.42C155.47,3.94,159.06,8.05,159.06,13.36ZM142.28,119.51V36.64h15.07v82.87Z"/><path d="M180.29,104.1a39.5,39.5,0,0,0,19.86,6c11,0,16.1-5.48,16.1-12.32,0-7.19-4.28-11.13-15.41-15.24-14.9-5.31-21.92-13.53-21.92-23.46,0-13.35,10.79-24.31,28.6-24.31a41.33,41.33,0,0,1,20.37,5.13l-3.76,11a32.34,32.34,0,0,0-17-4.79c-8.9,0-13.86,5.13-13.86,11.3,0,6.85,5,9.93,15.75,14,14.38,5.48,21.74,12.67,21.74,25,0,14.55-11.3,24.82-31,24.82-9.07,0-17.46-2.22-23.28-5.65Z"/><path d="M248.1,104.1a39.46,39.46,0,0,0,19.86,6c11,0,16.09-5.48,16.09-12.32,0-7.19-4.28-11.13-15.41-15.24C253.75,77.22,246.73,69,246.73,59.07c0-13.35,10.78-24.31,28.59-24.31a41.4,41.4,0,0,1,20.38,5.13l-3.77,11A32.3,32.3,0,0,0,275,46.06c-8.91,0-13.87,5.13-13.87,11.3,0,6.85,5,9.93,15.75,14,14.38,5.48,21.75,12.67,21.75,25,0,14.55-11.3,24.82-31,24.82-9.08,0-17.47-2.22-23.29-5.65Z"/><path d="M334.73,13.36c.18,5.13-3.59,9.24-9.58,9.24a9,9,0,0,1-9.08-9.24,9.18,9.18,0,0,1,9.42-9.42C331.14,3.94,334.73,8.05,334.73,13.36ZM318,119.51V36.64H333v82.87Z"/><path d="M433,77.39c0,30.65-21.23,44-41.26,44C369.32,121.4,352,105,352,78.76c0-27.74,18.15-44,41.09-44C416.92,34.76,433,52.05,433,77.39Zm-65.74.86c0,18.15,10.44,31.84,25.16,31.84,14.39,0,25.17-13.52,25.17-32.19,0-14-7-31.84-24.82-31.84S367.27,62.5,367.27,78.25Z"/><path d="M452,59.07c0-8.56-.17-15.58-.68-22.43h13.35l.86,13.7h.34c4.11-7.88,13.7-15.58,27.39-15.58,11.48,0,29.28,6.85,29.28,35.27v49.48H507.49V71.74c0-13.35-5-24.48-19.17-24.48-9.93,0-17.64,7-20.2,15.41a21.5,21.5,0,0,0-1,7v49.82H452Z"/><path d="M747.25,117.8c-5.48,2.74-16.44,5.48-30.48,5.48-32.53,0-57-20.55-57-58.39,0-36.13,24.49-60.61,60.27-60.61,14.39,0,23.46,3.08,27.4,5.14l-3.6,12.15a54.22,54.22,0,0,0-23.28-4.79c-27.06,0-45,17.29-45,47.6,0,28.25,16.26,46.4,44.34,46.4,9.08,0,18.32-1.88,24.32-4.8Z"/><path d="M838.51,79.45c0,30.64-21.23,44-41.26,44-22.43,0-39.73-16.44-39.73-42.63,0-27.74,18.15-44,41.09-44C822.41,36.81,838.51,54.11,838.51,79.45Zm-65.75.85c0,18.15,10.45,31.85,25.17,31.85,14.38,0,25.17-13.53,25.17-32.19,0-14-7-31.85-24.83-31.85S772.76,64.55,772.76,80.3Z"/><path d="M857.52,61.13c0-8.57-.18-15.59-.69-22.43h13.36L871,52.39h.35c4.1-7.87,13.69-15.58,27.39-15.58,11.47,0,29.28,6.85,29.28,35.27v49.49H913V73.79c0-13.35-5-24.48-19.18-24.48-9.93,0-17.63,7-20.2,15.41a21.77,21.77,0,0,0-1,7v49.83H857.52Z"/><path d="M970,14.9V38.7h21.57V50.17H970V94.86c0,10.27,2.91,16.09,11.3,16.09a33.17,33.17,0,0,0,8.73-1l.68,11.3c-2.91,1.2-7.53,2.06-13.35,2.06-7,0-12.67-2.23-16.27-6.34-4.28-4.45-5.82-11.81-5.82-21.57V50.17H942.44V38.7h12.84V18.83Z"/><path d="M1008.53,64.55c0-9.76-.17-18.15-.68-25.85H1021l.52,16.26h.68c3.77-11.13,12.84-18.15,22.94-18.15a15.93,15.93,0,0,1,4.28.52V51.54a22.15,22.15,0,0,0-5.13-.52c-10.62,0-18.15,8-20.21,19.35a42.74,42.74,0,0,0-.68,7v44.18h-14.9Z"/><path d="M1137.8,79.45c0,30.64-21.23,44-41.26,44-22.43,0-39.72-16.44-39.72-42.63,0-27.74,18.15-44,41.09-44C1121.71,36.81,1137.8,54.11,1137.8,79.45Zm-65.74.85c0,18.15,10.44,31.85,25.16,31.85,14.39,0,25.17-13.53,25.17-32.19,0-14-7-31.85-24.82-31.85S1072.06,64.55,1072.06,80.3Z"/><path d="M1156.81,0h15.07V121.57h-15.07Z"/><path class="cls-1" d="M599.18,3l-53.3,118.2.22.1,1.11-.45q25.47-10.52,50.94-21.08a2.42,2.42,0,0,1,2,0q25.51,10.59,51,21.15c.36.16.75.29,1.36.52Zm32.1,98.51q-15.48-6.41-31-12.84a2.65,2.65,0,0,0-2.27,0q-15.48,6.45-31,12.83c-.29.12-.59.22-.91.33l-.16-.16L599,28.4h.17s.08,0,.09,0Q615.64,64.62,632,100.8c.13.29.24.59.45,1.08C631.93,101.7,631.6,101.6,631.28,101.47Z"/></g></g></svg>